<svg  xmlns="http://www.w3.org/2000/svg" width="169.268" height="42.983" viewBox="0 0 169.268 42.983">
  <g id="logo" transform="translate(-44.079 -58.554)">
    <path id="Tracé_1" data-name="Tracé 1" d="M50.642,80.573a1.05,1.05,0,0,1-1.05-1.046A15.4,15.4,0,0,1,64.9,64.066h.08A15.4,15.4,0,0,1,80.36,79.372a1.05,1.05,0,0,1-1.046,1.055h0a1.051,1.051,0,0,1-1.051-1.045,13.283,13.283,0,0,0-26.565.135,1.05,1.05,0,0,1-1.045,1.056Z" transform="translate(0.595 0.595)" fill="#03565c"/>
    <path id="Tracé_2" data-name="Tracé 2" d="M65.569,101.537a21.492,21.492,0,0,1-.107-42.983h0a.788.788,0,0,1,0,1.575,19.916,19.916,0,1,0,.2,39.831h0a.788.788,0,0,1,0,1.576h-.111" transform="translate(0 0)" fill="#03565c"/>
    <path id="Tracé_3" data-name="Tracé 3" d="M63.611,69.58h-.049a1.313,1.313,0,0,0,.007,2.627h.042a6.649,6.649,0,0,1,.033,13.3,1.313,1.313,0,0,0,.007,2.626h.007a9.276,9.276,0,0,0-.047-18.551" transform="translate(1.961 1.189)" fill="#03565c"/>
    <path id="Tracé_4" data-name="Tracé 4" d="M62.793,81.457a1.313,1.313,0,0,0,2.627,0V76.99a1.313,1.313,0,1,0-2.627,0v.175h-1.84V74.011a1.313,1.313,0,0,0-2.627,0v4.468a1.313,1.313,0,0,0,1.313,1.313h3.154Z" transform="translate(1.537 1.526)" fill="#03565c"/>
    <path id="Tracé_5" data-name="Tracé 5" d="M99.02,76.4H96.285a3.06,3.06,0,0,0-3.055-2.1c-2.148,0-3.676,1.742-3.676,4.263,0,2.327,1.492,4.3,3.712,4.3a3.159,3.159,0,0,0,3.143-2.291h2.824a6.018,6.018,0,0,1-6.039,4.458c-3.747,0-6.234-2.788-6.234-6.483a6.157,6.157,0,0,1,6.288-6.412A5.652,5.652,0,0,1,99.02,76.4" transform="translate(4.625 1.465)" fill="#03565c"/>
    <path id="Tracé_6" data-name="Tracé 6" d="M102.346,80.035h3.25L104.6,77.14c-.23-.676-.409-1.244-.568-1.848h-.089a18.948,18.948,0,0,1-.586,1.866Zm.586-7.549h2.38L109.771,84.6H107.16l-.942-2.753h-4.476l-.959,2.753H98.225Z" transform="translate(5.84 1.503)" fill="#03565c"/>
    <path id="Tracé_7" data-name="Tracé 7" d="M113.513,74.529h-1.278v3.748h1.225c1.7,0,2.132-.924,2.132-1.866a1.812,1.812,0,0,0-2.078-1.882m-3.819-2.043h3.872c2.594,0,4.583,1.225,4.583,3.89,0,2.434-1.492,3.944-4.672,3.944h-1.243V84.6h-2.54Z" transform="translate(7.078 1.503)" fill="#03565c"/>
    <path id="Tracé_8" data-name="Tracé 8" d="M119.611,80.3h3.055V77.05c0-.71,0-.977.018-1.475h-.053a13.211,13.211,0,0,1-.906,1.581Zm5.435,2.061V84.6h-2.38V82.362h-5.222V80.39l5.2-7.9h2.4V80.3h1.545v2.061Z" transform="translate(7.914 1.503)" fill="#03565c"/>
    <path id="Tracé_9" data-name="Tracé 9" d="M127.175,72.491h.8v11.4h6.037v.71h-6.835Z" transform="translate(8.963 1.503)" fill="#03565c"/>
    <path id="Tracé_10" data-name="Tracé 10" d="M141.234,73.2h-5.841v4.758h5.646v.71h-5.646v5.219h6.036v.71h-6.834V72.491h6.639Z" transform="translate(9.763 1.503)" fill="#03565c"/>
    <path id="Tracé_11" data-name="Tracé 11" d="M144.3,80.444h5.895l-1.758-4.118c-.3-.692-.87-2.132-1.153-2.895h-.072c-.319.8-.905,2.309-1.206,3.019Zm2.575-7.953h.781L152.784,84.6h-.835l-1.456-3.444H144L142.557,84.6h-.816Z" transform="translate(10.534 1.503)" fill="#03565c"/>
    <path id="Tracé_12" data-name="Tracé 12" d="M156.707,73.2h-2.965v5.326h2.982a2.624,2.624,0,0,0,2.929-2.628c0-1.739-1.047-2.7-2.947-2.7m4.811,11.4H160.6l-4.208-5.362h-2.646V84.6h-.816V72.491h3.622c2.911,0,3.96,1.544,3.96,3.408a3.309,3.309,0,0,1-3.232,3.3Z" transform="translate(11.741 1.503)" fill="#03565c"/>
    <path id="Tracé_13" data-name="Tracé 13" d="M162.575,73.715c.035.976.035,1.953.035,2.929V84.6h-.71V72.49h.728l4.865,6.694c.941,1.3,1.953,2.734,2.929,4.084h.072c-.019-.852-.037-1.723-.037-2.575v-8.2h.711V84.6h-.694l-5.024-6.924c-.923-1.261-2.29-3.2-2.823-3.959Z" transform="translate(12.709 1.503)" fill="#03565c"/>
    <rect id="Rectangle_2" data-name="Rectangle 2" width="0.799" height="12.109" transform="translate(186.432 73.994)" fill="#03565c"/>
    <path id="Tracé_14" data-name="Tracé 14" d="M176.276,73.715c.035.976.035,1.953.035,2.929V84.6h-.71V72.49h.728l4.865,6.694c.941,1.3,1.953,2.734,2.929,4.084h.071c-.018-.852-.035-1.723-.035-2.575v-8.2h.71V84.6h-.692l-5.024-6.924c-.923-1.261-2.29-3.2-2.823-3.959Z" transform="translate(14.187 1.503)" fill="#03565c"/>
    <path id="Tracé_15" data-name="Tracé 15" d="M198.073,78.512v.106a6.106,6.106,0,0,1-6.143,6.409,6.448,6.448,0,0,1-.018-12.889,6.118,6.118,0,0,1,5.628,3.391h-.905a5.224,5.224,0,0,0-4.687-2.681,5.393,5.393,0,0,0-5.415,5.61c0,3.551,2.344,5.858,5.415,5.858a5.268,5.268,0,0,0,5.309-5.1h-5.575v-.71Z" transform="translate(15.274 1.465)" fill="#03565c"/>
  </g>
</svg>
