<svg  xmlns="http://www.w3.org/2000/svg" preserveAspectRatio="xMinYMin" version="1.1" id="Calque_1-440452978" x="0px" y="0px" viewBox="0 0 518.3 235.5" style="enable-background:new 0 0 518.3 235.5;" xml:space="preserve">
    <style type="text/css">
        .st0{fill:#000000;}
    </style>
    <g>
	<path class="st0" d="M356.5,157.9c-1.1-0.9-2.5-1.5-3.5-2.7s-16-5-15.9-4.9c-0.7-0.2-17.2-1.8-51.1,2.6c-1.6,0.2-3.1,0.8-4.8,1
		c-6.2,0.9-12.9,1.8-20.2,2.9c2.6-7.1,5.7-17,8.5-21.8c0.3-0.8,1.1-2.4,1.6-2.5c1.1-0.1,2.5,1.8,3.2,2.5c2.9,2.2,6.5,6.1,10.1,7
		c0.7,0.3,2.2,0.3,3.7,0.1c1.8-0.2,3.7-0.5,4.5-0.9c2-1,5.7-2.2,7.2-3.9c1.7-1.9,4.1-3.8,5.4-5.7c2.8-4.2,5.1-7.3,7.5-11.6
		c3.6-6.8,8.1-16.1,10.5-23.8c1.9-6,3.4-14,2.4-21.4c-0.1-0.4-0.1-0.8-0.2-1.3c-1.1-2.3-2.8-3.9-4.3-5.7c-2-1.4-8.4-1.3-11.1-1
		c-0.2,0-0.3,0-0.5,0.1c-4.4,0.5-7.1,2.9-9.7,5.3c-0.2,0.2-0.4,0.4-0.6,0.5c-2.3,2-4.1,4.2-5.9,6.1c-7.5,8.7-14.7,20.6-20.2,29.8
		c-3,4.9-5.4,10.1-8.5,14.2c2.3-6.8,5.1-13.5,8.1-20.9c2.2-5.1,4.4-10.4,7.1-15.4c0.7-1.5,2.2-3.4,2.4-5c-0.1-0.4-0.1-0.7-0.2-1.1
		c0-0.3-0.1-0.8,0-1.3s0.3-1,0.3-1.5c0-0.1,0-0.1,0-0.2c-0.3-0.6-11.5-2.1-15.7-1.5c-0.5,0.1-1,0.1-1.3,0.3c-0.7,0.4-1.5,1.8-2,2.8
		c-0.6,1.2-1.2,2.7-1.7,4c-0.6,2-1.8,4.3-2.3,6.1c-4.2,9.2-7.7,18.9-10.9,28.9c-8.6,7.5-19.8,14.9-28.7,17.6
		c-0.8,0.2-1.4,0.3-2.1,0.4c-2,0.3-4.1,0.1-5.3-0.5c-0.7-0.4-1.2-1.5-1.6-2c-0.5-1.1-1.1-2.5-1.2-3.7c0-0.2-0.1-0.5-0.1-0.7
		c0.1-4,1.7-8.1,3.2-10.4c3.5,1.7,8,2.3,12.4,1.7c2.2-0.3,4.2-0.9,6-1.7c5.5-2.5,10.1-6.3,13.4-10.5c3-4,6.3-9.7,7.1-14.8
		c0.1-1.5,0.4-3.1,0.2-4.5c-0.8-6.1-3.8-6.8-8.9-7.8c-2.7-0.7-8.3-0.5-10.2-1.3c-1.4-0.2-3-1-4.4-0.8c-0.5,0.1-0.9,0.3-1.2,0.5
		c-2.7,0.6-6.9,2.3-8.8,3.7c-3.5,2.5-7.3,4.9-9.7,8c-0.7,0.6-1.3,1.1-2,1.7c-0.4,0.7-0.6,1.4-1.3,2.1c-4.4,5.1-8.3,10.6-10.7,16.6
		c-0.4,0.6-0.8,1.2-1.4,1.8c-1.6,2.4-3.7,4.8-7.1,5.8c1.5-4.2,3.3-8.2,5.4-12.3c0.6-1,1-2.1,1.5-3.2c1.3-1.9,2.3-4.1,2.6-6.5
		c0.1-0.9,0.1-1.9-0.1-2.9c-0.3-1.6-1.1-3-2.4-4c-0.9-0.4-2.5-0.2-4.4-0.3c-0.7,0-1.3-0.5-1.9-0.5c-0.6,0.1-1.6,0.2-2.4,0.3
		c-0.8,0.2-1.6,0.5-2,0.6c-1,0.6-1.5,1.6-2.4,2.1c-2.1,1.9-2.5,3-4.4,6.3c-5.9,10.1-10.9,16.5-16.8,22.8c-0.1-0.1-0.3-0.2-0.4-0.4
		c1-3.5,0.8-2,2.9-6.6c0.1-0.3,0.3-0.6,0.4-1c0.7-1.3,1.7-2.7,2.1-3.9c0.2-1.2,0.3-2.4,0.1-3.2c-0.3-1.4,0-5-1.3-5.6
		c-0.9-0.5-2.9,1.7-3.4,1.5c-0.2,0-0.2-0.1-0.3-0.1c-0.9-0.4-2-0.7-2.8-0.6c-0.1,0-0.2,0-0.3,0.1c-1.2-0.8-2.7-1-4-1.4
		c-0.7-0.1-1.3-0.4-1.9-0.4c-0.9-0.2-1.7-0.2-2.4-0.1c-1.7,0.4-2.9,1.8-3.8,3c-1.1,4.5-3.3,8.3-5.2,12.5c-3.8,8.4-5.7,11.4-7.4,20.5
		c-0.5,2.6-1,5.3-1.3,8c-1.4,1.8-2.8,3.6-4.3,5.4c-2.2,2.9-5.5,5.7-8.5,7.4c-0.3-0.8-0.7-1.6-0.9-2.4c-0.9-3.9-0.4-8.7,0.1-12.8
		c0.1-0.4,0.1-0.8,0.2-1.2c0.3-2.8,3.3-18.7,3.6-19.6l0,0c0.6-1.9,1.5-4.4,2.4-6.9c1.5-3.9,3-7.7,4.5-11.6c1.4-1.2,7.3-3.2,8.9-3.6
		v0.1c4.2-1.6,8.3-3.2,12.5-4.8c3-1.3,7-2.7,8.2-3.4c4-2,19.6-6,23.2-7.9c2.2-1.2,4.2-2.5,5.5-3.4c0.6-0.5,0.8-0.9,1.1-1.2
		c0.8-0.7,2-1.4,2.3-2.3c-0.3-0.8-0.8-1.4-2.3-1.7c-0.7-0.2-1.5-0.1-2.6,0c-4.4,0.3-20.6,4.6-28,6.4l0,0l0,0l-0.7,0.4
		c-1.3,0.3-1.5,0.3-2.1,0.4c-0.1,0-0.2,0-0.3,0c0,0-0.6,0.4-0.6,0.3c-3.6,0.6-8.7,1.1-11,1.9c-2.4,0.9-4.9,1.9-6.9,2.6
		c2.1-4.1,3-4.1,6.2-7.9c0.8-1,2.2-3.1,3.3-3.8c0.5-0.5,1-1,1.5-1.5c0.5-0.4,1.3-1.1,1.9-1.6l0,0c0,0,3.9-4.2,7.7-6.3
		c0.1-0.8,0.1-1.6,0-2.2c-0.1-0.6-0.4-1.1-0.8-1.3c-0.7-1.1-3.2-1.1-5.1-1c-2.2-0.2-4.2-0.1-5.5-0.7c-0.2,0-0.4,0.1-0.7,0.1
		c-2.8,0.3-5.7,1.5-6.8,3.3c-0.2,0.5-0.3,1-0.5,1.5c-0.9,1.1-2.2,2.3-3.4,3.7c-1,1.3-2.1,2.6-3,3.7c-6.4,7.6-9.7,10.9-14.5,20.1
		c-4.5,1.9-9.3,3.6-14.7,4.8c-1.8-0.1-3.4-1.1-4.7-0.8c-0.1,0-0.1,0-0.2,0c-0.5,0.1-1.1,0.4-1.4,0.5c-0.6,0.3-1.1,0.4-1.6,0.5
		s-1,0.2-1.2,0.7c0,0.1,0.1,0.3,0.1,0.4c0.2,1,1.2,1.4,1.6,2.3c0.7,1.5,1.8,1.9,2.9,3c0.7,0.8,0.8,2,1.4,3c0.3,0.7,1.9,1.8,2.6,2
		c2.1,0.6,6-0.6,8.9-0.8c-2.1,5.8-4.9,14.7-6.6,22.6c0-0.1-0.1-0.2-0.1-0.3c-3.5,6.4-9.4,12.9-14.6,18.3c-0.6,0.6-1.3,1.6-2.2,1.8
		c-0.3,0.1-0.5,0-0.8-0.1c-0.1-1.1,0.2-2.3,0.6-3.4c2-6.8,2.4-10.1,5.1-16.7c0.5-1.1,1-2.3,1.5-3.4c0.5-1.8,0.5-4-0.1-6
		c-0.5-1.8-1.6-3.4-3.5-4.1c-1.7-0.7-3.3-0.4-5.5-0.5c-0.9-0.1-2-0.4-2.6-0.2c-1.4,0.3-3.3,1.9-5.2,4.1c-0.9,0.9-1.8,1.7-2.4,2.6
		C61.1,135,55.5,147.1,47.7,160c-1.1,1.8-2.4,4.3-3.8,5.8c0.5-2,2.4-9.1,3-10.6s1.4-3.1,2.2-4.7c1.3-2.9,2.4-5.9,4.1-8.7
		c1.7-2.5,3.4-5.4,5.8-7.8c1.2-1.4,2.6-2.9,2.6-4.6c-0.1-0.4-0.1-0.7-0.1-1c-1-3-4.1-3.3-6.3-3.9c-1-0.4-2-1-3.1-0.7
		c-0.3,0.1-0.7,0.4-1,0.6c-1.7-0.4-3.4,0-5-0.2c-1.8-0.2-3.5-1.3-5.4-1c-1.4,1-3,1.8-3.4,3.4c0.1,0.2,0.1,0.4,0.2,0.5
		c0.4,1.2-0.3,2.3-0.8,3.8c-4.2,11.6-8.4,22.9-9.8,35.3c0,0.3-0.1,0.6-0.1,0.9c-0.5,4.2-0.9,8.8,0.4,13.1c0.6,1.3,1.2,2.7,1.9,3.6
		c1.1,1.8,2.7,2.3,4.2,4.1c1.4,0.8,4.6,2.3,6.5,2.1c0.3,0,0.9-0.2,1.5-0.4c3.9-1.9,4.9-4.8,6.9-8c2.1-3.4,3.6-7,5.3-10.5
		c0.2-0.8,0.8-1.3,1.2-2c0.3-0.5,0.4-1.1,0.5-1.6c0.8-1.9,1.9-3.7,2.8-5.6c2.6-4.6,5.1-11.5,7.4-15.9c0.3-1,0.8-2,1.5-2.4
		c0.2,2-1,8.2-1,10.3c0,2.9,0.3,6.6,1.5,9.8c0.7,1.8,1.7,3.6,3.2,4.8c0.5,0.5,1.3,0.9,2,1.4c2.2,1.9,5.4,3.6,8.9,2.6
		c0.3-0.1,0.5-0.3,1-0.4c6.2-2.7,8.8-8.9,11.4-13.1c1.1-1.8,2.7-3.5,2.9-5.8c0.8-2,1.7-4.1,2.6-6.3c0.1,3.1,0.5,6.1,1.2,8.8
		c0.9,3.8,2.4,7,4.3,9c0.8,0.7,2,0.8,3,1.2c1,0.8,2,1.7,3.2,2.1c1.6,0.7,4.8,0.4,7.6-0.4c0.5-0.1,1-0.3,1.5-0.4
		c4.7-1.3,7.2-5.6,10.1-8.7c0.4-0.6,0.8-1.1,1.2-1.7c1.8,2.2,4.5,3.5,7.5,3.9c1.5-0.1,2.4,0,3.1-0.1c0.3-0.1,0.8-0.1,1.2-0.4
		c2-0.3,3.6-2.1,4.1-3.7c1.5-4.9,1.4-8.5,4.5-13.6c1.7-2.9,5.4-7.6,8.9-11.1c2.7-2.8,5.4-5.5,8.1-8.3c1.2,2.2,4.3,6.7,6.7,8.2
		c0.7,0.4,3,1.2,4,1.3c0.2,0,0.3-0.1,0.5-0.1c1.2-0.2,2.1-0.8,3.2-1.3c1.5-0.5,2.8-1.2,4.4-2.1c1.1-1.7,2.8-3.7,4.1-5.9
		c0,1.7,0.2,3.4,0.5,5c1.6,8.7,7.9,16.3,18.5,17.3c0.3,0,0.5,0.1,0.8,0c3.8,0.5,7.8,1.1,11.5,0.8c0.3,0,0.6-0.1,0.9-0.1
		c7-0.8,13.3-4.5,18.6-8.9c-1.6,7.1-3.1,15.6-4.1,23.2c-0.6,0.1-1.1,0.2-1.7,0.3c-2.1,0.5-4.2,1.3-6.4,1.8
		c-21.5,4.8-46.4,11-74.8,19.8c0,0.4,0.3,1.4-0.1,1.5c-2.1,0.2-5.3,1.5-9,2c-0.1-0.6,6.6-1.9,6.2-3c-3.2,1-5.6,2.3-10.1,2.2
		c0.3-2.4,3.5-6.7,9.6-11.1c3.2-2.6,5.5-2.9,7.3-5.1c2.8-1.8,4-2.3,3.9-3.3c2.5-0.3,5.5-2.1,7.3-2.9c-0.1-1.9-2.6-1.3-3.6-1.2
		c-6.2,0.2-10.7,4.1-15.3,4.7c-17.9,11.2-17.5,16.1-17.4,17.5c0.1,1.6,1.6,2.7,3.2,5c0.2,0.3,0.4,1.7,0.8,2.1
		c0.4,0.5,1.4,0.8,1.7,1.2c1,1.2,1.3,2.5,2.4,2.9c1.4-0.4,11.8-2.9,27.2-6.4c0.6-0.1,1.2,0.1,1.7,0c17.4-3.9,40.8-9.3,65-13.7
		c0.2,0,0.5-0.1,0.7-0.1c-0.1,2.4-0.1,4.8,0.3,7.1c0,0.2,0.1,0.4,0.1,0.6c0.6,2.4,3,3.5,4.4,5.2c0.9,0.1,1.5,0.5,2.2,0.6
		c2.1-1.4,1.8-5.7,3.7-7.5c0.7,0.4,1.2,2.3,1.7,2.3c1.2-0.1,1.8-1.5,2.2-2.9c0.9-3,2.3-5.7,3.3-8.2v-0.1c3.6-0.7,7.1-1.3,10.7-1.9
		c2.5-0.4,5.1-0.4,7.6-0.8c27.1-4,51.6-6.5,65.4-4.3c1.8-0.2,3.3-0.1,4,1.1c7.7,0.4,13,4.5,18.7,7.8c0.7,3.3,0.8,5.1,3.4,6.1
		c-0.4,0.1-0.3,0.7,0.1,0.7c0.2-3.7-0.4-10-1.8-11.7C362.2,165.4,359.5,160.4,356.5,157.9z M280.2,115.4c0.9-1.6,1.8-3.2,2.7-4.8
		c2.9-4.5,7.4-11.7,10.5-15.8c4.5-6.2,9-12.1,14.7-16.8c0,0.1,0,0.1,0,0.2c-2,14.2-11.5,37.7-21.2,48.2c-1.3,1.5-2.9,3.3-4.8,3.4
		c-0.3,0-0.5-0.1-0.8-0.1c-0.6-1.8-1.4-3.5-1.7-5.5c-0.1-0.6-0.1-1.2-0.2-1.9C279.1,120.6,279.1,118.4,280.2,115.4z M216.3,108.2
		c1.8-3.7,4.3-6.8,6.7-9.8c0.2-0.3,0.5-0.6,0.7-0.9c1.9-2.4,3.7-4.3,6.1-6.2c0.8-0.9,1.9-2.4,3.2-2.7c0.1,0,0.1,0,0.2,0
		c1.9-0.3,2.5,1.3,2.6,2.3c-1.1,5.1-3,9.5-6.7,14.1c-1.9,1.6-3.5,3.5-5.7,5.2c-2,1.6-4.2,2.8-6.4,3.2c-0.9,0.1-1.7,0.1-2.7,0
		C214.9,111.3,215.2,110.1,216.3,108.2z"></path>
        <path class="st0" d="M190.3,223.6l-2.3-0.7c-0.9-0.3-1.5-0.5-1.9-0.7s-0.7-0.4-0.9-0.6c-0.2-0.3-0.3-0.6-0.3-1
		c0-0.5,0.2-0.9,0.7-1.3c0.5-0.3,1.1-0.5,2-0.5c0.8,0,1.5,0.2,2.2,0.5s1.2,0.7,1.6,1.3l3.3-2.8c-0.8-0.9-1.8-1.6-3.1-2.1
		c-1.2-0.5-2.6-0.8-4.1-0.8c-1.4,0-2.7,0.2-3.9,0.7c-1.1,0.5-2,1.2-2.7,2.1c-0.6,0.9-1,2-0.9,3.2c0,2.1,0.9,3.6,2.7,4.6
		c0.8,0.4,1.8,0.9,3.1,1.3l1.9,0.6c0.9,0.3,1.5,0.6,1.9,0.9c0.4,0.3,0.6,0.7,0.6,1.2c0,0.6-0.3,1.2-0.8,1.5
		c-0.6,0.4-1.3,0.6-2.2,0.6s-1.8-0.2-2.6-0.7c-0.8-0.4-1.4-1-1.9-1.8L179,232c0.8,1.1,1.9,2,3.3,2.6c1.4,0.6,3,0.9,4.6,0.9
		c2.4,0,4.3-0.5,5.8-1.7s2.2-2.7,2.2-4.7c0-1.5-0.4-2.6-1.3-3.5C192.9,224.7,191.7,224.1,190.3,223.6z"></path>
        <polygon class="st0" points="207.4,219.4 212.3,219.4 212.3,235.1 217,235.1 217,219.4 221.8,219.4 221.8,215.3 207.4,215.3 	"></polygon>
        <path class="st0" d="M246.8,227.2c0,2.7-1.1,4-3.3,4s-3.3-1.3-3.3-4v-11.9h-4.7v12.1c0,2.7,0.7,4.7,2.1,6.1c1.3,1.3,3.3,2,5.9,2
		c2.6,0,4.6-0.7,5.9-2c1.4-1.4,2.1-3.4,2.1-6.1v-12.1h-4.7V227.2z"></path>
        <path class="st0" d="M280.2,217.1c-1.4-1-3.1-1.5-5.1-1.6c-0.8-0.1-1.9-0.1-3.2-0.1h-5.3v19.7h5.3c1.4,0,2.6,0,3.6-0.1
		c0.9-0.1,1.8-0.3,2.6-0.5c0.8-0.2,1.6-0.6,2.4-1.2c1.1-0.8,2-1.9,2.7-3.4s1-3,1-4.7c0-1.8-0.4-3.4-1.1-4.8
		C282.4,219,281.4,217.9,280.2,217.1z M278.9,228c-0.3,0.8-0.7,1.4-1.3,1.8c-0.6,0.4-1.2,0.8-2,1s-1.6,0.3-2.6,0.3h-1.8v-11.7h2.1
		c2,0,3.6,0.5,4.6,1.5s1.5,2.5,1.5,4.4C279.4,226.3,279.2,227.2,278.9,228z"></path>
        <rect x="298.3" y="215.3" class="st0" width="4.7" height="19.7"></rect>
        <path class="st0" d="M332.7,216.2c-1.6-0.9-3.3-1.3-5.3-1.3c-1.9,0-3.7,0.4-5.3,1.3c-1.6,0.9-2.8,2.1-3.7,3.6
		c-0.9,1.6-1.3,3.3-1.3,5.3s0.4,3.7,1.3,5.3s2.1,2.8,3.6,3.7c1.6,0.9,3.4,1.3,5.4,1.3s3.8-0.4,5.3-1.3c1.6-0.9,2.8-2.1,3.6-3.7
		c0.9-1.6,1.3-3.4,1.3-5.3c0-2-0.4-3.7-1.3-5.3C335.5,218.3,334.3,217.1,332.7,216.2z M331.5,229.6c-1,1.2-2.4,1.8-4,1.7
		c-1.1,0-2-0.2-2.9-0.8c-0.9-0.5-1.5-1.3-2-2.2c-0.5-1-0.7-2-0.7-3.2c0-1.7,0.5-3.2,1.5-4.3c1-1.2,2.4-1.7,4-1.7s3,0.5,4,1.7
		c1,1.1,1.5,2.6,1.5,4.3C333,226.9,332.5,228.4,331.5,229.6z"></path>
        <path class="st0" d="M323.1,115.2c-1,3.6-2,7.9-1.8,11.9c0.1,0.4,0.1,0.8,0.2,1.3c0.3,2.2,0.9,4.1,1.6,5.2c1,1.5,2.9,2.3,4.6,3
		c1,0.4,1.8,0.5,2.4,0.5c0.5,0,1.1-0.2,1.5-0.4c1.2-2,2.4-3.9,3.7-5.9c0.1-0.5,0-1.3,0.3-1.8c0.2-0.8,0.7-1.7,1.1-2.5
		c1.1-2.7,2.2-5.3,3.2-8c2.4-7.3,8.3-21.9,11.6-28.9c0.8-1.7,1.4-3.6,2.3-5.4c0.8-1.7,1.9-3.4,2.5-5.3c0.2-1,0.5-1.8,0.4-2.7
		c-0.4-3.6-4.4-4.9-6.9-6.4c-0.2,0-0.3,0-0.5,0c-2.3,0.2-4.3-1.7-7.4-1.4c-0.2,0-0.4,0-0.6,0.1c-1.3,0.1-3.3,1.6-3.8,3
		c-0.3,0.7-0.3,1.8-0.5,2.8c-0.6,1.7-1.6,3.4-2.3,5.3c-5.1,12.2-9.8,27.6-11.5,35.3C323.2,114.8,323,115,323.1,115.2z"></path>
        <path class="st0" d="M350.5,57.8c0.7,0.3,1.4,1.1,2.1,1.2c0.7-0.1,1.4-0.1,2.1-0.2c0.8-0.1,1.5,0,2.2-0.1c0.4,0,0.7-0.1,1.1-0.2
		c1.5-0.8,2.8-1.8,4.1-2.8c1.1-1.2,2.1-2.7,3.3-4c1.8-2.1,3.9-3.9,5.1-6.3c0.1-0.9,0.1-1.9,0-2.8c0-0.2,0-0.5-0.1-0.7
		c-0.9-0.6-1.4-2.6-2.7-2.8c-0.2-0.1-0.4-0.1-0.6-0.1c-0.3,0-0.9-2.4-1.2-2.3c-1.7-0.1-3.3,1.3-5.3,0.9c-0.6-0.1-1.3,0-1.9,0.1
		c-0.5-0.1-1.1-0.3-1.6-0.4c-0.1,0-0.3,0-0.4,0c-1.8,0.2-3.2,1.2-4.1,2.4c-0.1,0.7-0.6,1.2-0.5,2c0,0.1,0,0.2,0,0.3
		c-1.9,4.8-2.8,10.5-4.6,15.4C348.5,58.2,349.3,57.7,350.5,57.8z"></path>
        <path class="st0" d="M435.6,49.7c2.9-5.7,11.4-22.6,14.6-28.3c1.1-2,2-4.1,3.2-5.7c0.5-0.5,0.9-0.9,1.4-1.6
		c0.6-0.9,0.9-2.4,0.9-3.7c0-0.5,0-1-0.2-1.5c-0.4-1.6-2.1-3.7-3.6-4.5c-0.7-0.4-1.8-0.7-2.8-1.1c-2.3-1.1-5.1-1.8-7-3.2
		c-0.2,0-0.3,0-0.5,0c-1,0.1-2.8-0.3-4.1-0.2c-0.2,0-0.3,0-0.5,0c0,0-0.2,0.2-0.3,0.2c-0.5,0.7-1.1,1.2-1.4,1.9
		c0,0.6,0.1,1.2,0.1,1.8c0,0.8-0.7,2.2-0.8,3c-0.7,2-2.1,3.9-3.1,6c-7.1,14-16.8,36.4-22.3,50.6c-1.4,2.5-1.4,3-2.7,4.2
		c-1.8-0.9-5.5-2.7-6.9-4.2c-1.3-0.9-2.5-0.6-4.2-1.1c-1.1-0.4-2.5-1.6-3.6-2.1c-1.1-0.4-2.3-0.8-3.4-1.2c-1.1-0.6-5.6-0.8-6.5-0.7
		c-1.4,0.1-1.8,1.3-2.5,2.1c-0.3,0.3-0.5,1-1,1.5c-1.3,1.5-3,2.8-4.8,4.4c-11.2,12-14.5,21.5-17.4,31.7c-1.1,3.7-1.6,10.4-1.1,15.3
		c0.1,0.8,0.3,1.5,0.4,2.2c0.7,3.8,5.8,9.4,10.7,12.2c1.2-0.1,2.4,0.3,3.6,0.3c0.1,0,0.2,0,0.3,0c4.3-0.2,7.6-3.3,9.8-5.5
		c0.7-0.8,1.5-1.5,2.1-2.1c4.4-4.3,8.7-9.8,12.3-14.4c1-0.7,1.2-2.4,2.4-2.7c-0.6,8.8-3.4,17-2.7,26.8c0.2,2.7,0.7,5.4,1.5,8.4
		c0.9,0.4,1.2,0.3,1.8,0.4c1.1,0.4,1.4,1.5,2.6,1.7c0.1,0,0.3,0,0.4,0c1.3,0,2.1-1.2,2.8-2.1c0-0.1,0.1-0.1,0.1-0.2
		c0.4-0.8,0.5-1.8,0.9-2.3s0.9-0.5,1-1.1c0.3-1.9,0.3-4,1.6-5.2c-0.2-2.4,1.2-4.7,1.8-6.6c1.1-4.2,2.5-8.3,3.7-12.7
		c1.2-4.2,2.4-8.5,3.6-12.7c2.9-8.2,5.5-16.6,9-24.6C428.3,65.5,431.7,57.5,435.6,49.7z M397,79.8c-6,8.7-13.2,20.9-20,28.7
		c-1.4,1.5-2.6,3.1-4.3,4.5c-1.5,1.3-1.8,1.5-4,2.1c0.5-7.2,3.8-13.4,8.1-20.9c2-3.4,7.1-10.1,10.4-12.9c3.3-3.2,7.3-6.1,13.1-6.8
		C399.7,76.6,398.2,78.1,397,79.8z"></path>
        <path class="st0" d="M517.5,79.5c-0.2-0.2-1.2,0.4-1.5,0.3c-1.1-0.3-2-0.6-4.6,1.3c-7,5.2-17.9,13.4-28.4,20
		c-4.3,2.6-8.6,5.4-13.7,7.7c-4.3,2.1-10.9,4.7-16.5,4.9c-3.1,0.1-5.8-0.4-8-2c-1.8-2.4-2.5-5.2-2.7-8.1c-0.3-4.4,0.9-8.7,2.9-11.8
		c5,3.8,9.5,9,14.9,8.8c0.9,0,1.8-0.2,2.8-0.6c3-1.7,5.9-3.8,8.1-7.1c1.7-1.9,3.4-3.8,5.1-5.7c0.7-1.2,1.7-2.5,2.1-3.8
		c1.4-2.5,2.8-4.8,3.8-7.6c0-0.1,0.1-0.1,0.1-0.2c0.6-1.2,1.3-2.6,1.2-3.8c0.7-2.1,1.2-4.8,1.1-7.2c-0.1-2.8-0.8-5.3-2.2-6.9
		c-0.5-0.8-1.9-1.4-3.1-1.9c-1.4-0.6-7-0.4-8.7-0.6c-0.5,0-0.9,0.2-1.4,0.2c-2.1,0.1-4-0.7-6-1.4c-0.2,0-0.3-0.1-0.5-0.1
		c-1.2-0.3-2.5-0.7-3.7-1c-0.3-0.2-0.6-0.4-0.9-0.6c-1.4-0.5-2.6-0.3-3.7-0.7c-1.5,0.1-3.5,0.6-5,1.3c-6.5,7.2-13.8,14.5-18.5,22.6
		c-0.9,1.6-1.7,3.3-2.6,5.2c-0.6,1.3-1.3,2.9-1.9,4.8c0,0.2-0.1,0.3-0.1,0.5c-0.8,2.9-1.4,5.1-1.7,8.6c-0.1,0.8-0.1,1.9-0.1,3
		c0,0.4,0.1,0.7,0.1,1.1c0.5,5.9,2.9,11.5,6.3,15.3c1.4,1,2.5,2.2,4,3.2c1.4,1,3.1,1.4,4.5,2.3c2.5,1.1,5.2,1.7,8,2.5
		c0.9,0.1,2.1,0.6,2.9,0.8c0.5,0,1.1,0,1.6-0.1c1.3,0.1,2.3,0.4,3.6,0.4c0.2,0,0.5,0,0.7,0c2.6-0.1,5.5-0.5,8.2-1.5
		c1-0.3,2.1-0.5,3-0.9c1.7-0.7,3.6-1.1,5.3-2.1c3.6-1.4,6.8-3.9,9.8-5.9c2-1.3,3.9-2.6,5.9-3.8c2.3-1.7,4.3-2.7,6.5-4.5
		c1-0.8,2.2-1.5,3.3-2.3c1-0.9,1.4-1.1,2.4-2c1.3-0.7,2.3-1.7,3.5-2.5c0.9-0.7,1.8-1.5,2.5-2.3c1-0.8,1.9-1.8,2.8-2.8
		c2.1-2,2.6-2.4,4.7-4.3c0.4-0.3,3.8-3.6,4.2-4.3C518.3,83.3,518.6,80.6,517.5,79.5z M458.5,72c2.3-2.9,5-6.2,7.9-9.1
		c0,0,0.1,0,0.2,0c0.5,0.6,0.7,1.2,0.7,2s-0.1,1.5-0.2,2.1c-1.5,6.3-3.2,11.9-6.6,17.2c-0.6,0.7-1.1,1.8-1.9,3.1
		c-0.6,0.5-1.4,2.1-1.9,2.6h-0.1c-1.3,0.1-2.9-1.4-3.7-2.2c-0.1,0-0.1-0.1-0.2-0.1c0-0.2-0.2-0.2-0.2-0.3c-1-1.2-1.9-2.4-2.6-3.7
		C452.4,79.5,455.2,75.7,458.5,72z"></path>
        <path class="st0" d="M35.4,96.9c0.4-1.6,2.2-5.6,2.9-7.3c0.1-0.9,0.8-2,1.1-3.1c0.1-0.9,0-1.6-0.3-2.3c-0.9-2.4-3.7-3.1-6.4-3
		c-2.8-0.2-4.5,0.7-7.7,1.2c-2.4,0.2-4.7,1-6.9,1.7c-0.5,0.2-1.1,0.4-1.6,0.7c-1.3,0.9-2.6,2.5-2.9,3.6c0,0.6-1.8,7.2-2,8
		c-3.1,14.1-6,31.5-7.7,44.9c-1.9,12.9-5.2,38.3-3.4,51.3c0.7,3.3,0.6,4.9,1.3,6.1c0.6,1.1,1.9,2,5,4c1.1,0.7,0.2,0.8,1.1,1
		c0.4,0.2,1.1,0,1.3,0.2c0.5,0.3,1.1,0.7,1.5,0.8c0.3-0.1,0.6-0.2,0.9-0.2c0.9-0.2,2.3-0.6,2.5-0.8c0.3-0.1,0.2-0.5,0.8-1.2
		c0.3-0.3,0.7-0.6,1-1c1.1-1.4,1-3.7,1-6.1c0.4-2.7,1-5.6,0.8-8.4c0.4-1.5,0.5-3,0.4-4.3c0.1-0.5-0.1-1,0-1.4c0-1.4,0.3-3.1,0.6-4.6
		c0.2-4.4,0.2-8.6,1.2-13.2c1.1-6.1,5.3-26,6.7-32.1C28.8,120.8,32.7,107.5,35.4,96.9z"></path>
        <path class="st0" d="M122,113.9c-0.9,2.4-1.8,5-2.4,6.9C120.4,118.5,121.2,116.2,122,113.9z"></path>
        <path class="st0" d="M231.9,71c4.8,1.5,15.7-2,19.6-4.4c3.2-2.1,5.4-3.6,6-5.4c0.3-0.8,0.2-1.7-0.3-2.7c-2-4.2-5.5-7-7.5-7.7
		c-0.4-0.1-0.8-0.1-1.1-0.1c-1.1,0.1-1.6,1.7-2.2,3.1c-1.6,3.6-4.2,6.2-6.7,8.6l-0.6,0.5c-2.7,2.5-4.5,5-9.1,6.8
		C230.4,70.4,231,70.7,231.9,71z"></path>
    </g>
</svg>