<svg xmlns="http://www.w3.org/2000/svg" width="136" height="136" viewBox="0 0 136 136">
  <g id="main_bubble" data-name="main bubble" transform="translate(-823 -2327)">
    <g id="Ellipse_12" data-name="Ellipse 12" transform="translate(830 2334)" fill="#fff" stroke="#fff" stroke-width="3">
      <circle cx="61" cy="61" r="61" stroke="none"/>
      <circle cx="61" cy="61" r="59.5" fill="none"/>
    </g>
    <g id="Groupe_5" data-name="Groupe 5" transform="translate(813.921 2300.446)">
      <path id="Tracé_24" data-name="Tracé 24" d="M51.351,91.717a1.759,1.759,0,0,1-1.759-1.752,25.794,25.794,0,0,1,25.639-25.9h.134A25.8,25.8,0,0,1,101.13,89.705a1.758,1.758,0,0,1-1.752,1.767h-.007a1.76,1.76,0,0,1-1.761-1.75,22.25,22.25,0,0,0-44.5.226,1.759,1.759,0,0,1-1.75,1.769Z" transform="translate(4.718 4.717)" fill="#03565c"/>
      <path id="Tracé_25" data-name="Tracé 25" d="M80.077,130.554a36,36,0,0,1-.18-72H79.9a1.319,1.319,0,0,1,.007,2.639,33.361,33.361,0,0,0,.34,66.72h.006a1.32,1.32,0,0,1,.007,2.641h-.186" transform="translate(0 0)" fill="#03565c"/>
      <path id="Tracé_26" data-name="Tracé 26" d="M64.526,69.58h-.082a2.2,2.2,0,0,0,.011,4.4h.071a11.138,11.138,0,0,1,.056,22.277,2.2,2.2,0,0,0,.011,4.4H64.6a15.537,15.537,0,0,0-.078-31.075" transform="translate(15.555 9.436)" fill="#03565c"/>
      <path id="Tracé_27" data-name="Tracé 27" d="M65.808,87.37a2.2,2.2,0,0,0,4.4,0V79.887a2.2,2.2,0,1,0-4.4,0v.293H62.726V74.9a2.2,2.2,0,0,0-4.4,0v7.484a2.2,2.2,0,0,0,2.2,2.2h5.283Z" transform="translate(12.192 12.104)" fill="#03565c"/>
    </g>
    <g id="Ellipse_16" data-name="Ellipse 16" transform="translate(823 2327)" fill="none" stroke="#fff" stroke-width="1">
      <circle cx="68" cy="68" r="68" stroke="none"/>
      <circle cx="68" cy="68" r="67.5" fill="none"/>
    </g>
  </g>
</svg>
